<mxfile host="app.diagrams.net" modified="2023-10-27T16:10:57.174Z" agent="Mozilla/5.0 (Macintosh; Intel Mac OS X 10_15_7) AppleWebKit/605.1.15 (KHTML, like Gecko) Version/17.0 Safari/605.1.15" version="22.0.8" etag="T3I1nrTLP3Y9fPm8vPbN" type="github">
  <diagram name="Page-1" id="gIWp-2nDEK4qfTy2xmFv">
    <mxGraphModel>
      <root>
        <mxCell id="0" />
        <mxCell id="1" parent="0" />
      </root>
    </mxGraphModel>
  </diagram>
</mxfile>
